<svg xmlns="http://www.w3.org/2000/svg" xmlns:xlink="http://www.w3.org/1999/xlink" width="400" height="400" viewBox="0 0 400 400">
<rect data-name="background" width="100%" height="100%" fill="#0d6efd"/><g data-name="container" data="container_num:17" fill="#393E46" transform="translate(12,152.2916019487984) scale(1.9083359220480642)"><circle cx="25" cy="25" r="25"/></g><g data-name="monogram" fill="#0d6efd" data="id:165" transform="translate(31.08335922048065,151.39355816330954) scale(1.8709176639292717)"><path d="M27.48,26c1.92,1.4,3.12,3.64,3.12,6.2c0,4.32-3.48,7.8-7.8,7.8l-22.8,0l0-15.6l9.32,0l0,0.04l0,6.2l13.48,0c0.84,0.04,1.48,0.72,1.48,1.56s-0.64,1.52-1.48,1.56l-16.56,0l0-6.24l-3.12,0l0,9.36l19.68,0l0.04,0c2.56,0,4.64-2.08,4.64-4.68c0-2.44-1.96-4.52-4.4-4.64l-10.64,0l0-3.12l10.52,0c2.52-0.12,4.52-2.12,4.52-4.68c0-2.6-2.08-4.68-4.64-4.68l-0.04,0l-19.68,0l0,3.12l19.68,0c0.84,0.04,1.48,0.72,1.48,1.56s-0.64,1.52-1.48,1.56l-22.8,0l0-9.36l22.8,0c4.32,0,7.8,3.48,7.8,7.8c0,2.56-1.2,4.8-3.12,6.24z"/></g><g data-name="business_name" fill="#393e46" data="id:311" transform="translate(129.82665486050027,168.0941482497115) scale(0.8409554902785926)"><path d="M3.08,48l0-28l11.36,0q2.72,0,4.7,0.88t3.06,2.5t1.08,3.82q0,2.16-1.14,3.76t-3.14,2.44q2.52,0.76,3.98,2.52t1.46,4.2q0,2.4-1.18,4.18t-3.32,2.74t-5.02,0.96l-11.84,0z M6.16,32.2l8.12,0q2.72,0,4.34-1.28t1.62-3.48t-1.62-3.48t-4.34-1.28l-8.12,0l0,9.52z M6.16,45.32l8.52,0q3.04,0,4.84-1.44t1.8-3.84t-1.8-3.84t-4.84-1.44l-8.52,0l0,10.56z M35.12,48.36q-2.2,0-3.86-0.76t-2.6-2.12t-0.94-3.16q0-2.84,2.16-4.48t5.84-1.64q3.24,0,5.88,1.36l0-2.64q0-2.4-1.36-3.62t-3.96-1.22q-1.48,0-2.98,0.42t-3.3,1.34l-1.12-2.28q2.16-1.04,4-1.52t3.68-0.48q3.8,0,5.86,1.8t2.06,5.16l0,13.48l-2.88,0l0-1.96q-1.36,1.16-2.98,1.74t-3.5,0.58z M30.56,42.24q0,1.68,1.42,2.74t3.66,1.06q1.8,0,3.28-0.56t2.68-1.76l0-3.76q-1.24-0.84-2.64-1.22t-3.16-0.38q-2.4,0-3.82,1.06t-1.42,2.82z M58.72,48.36q-2.84,0-5.16-1.38t-3.68-3.74t-1.36-5.28t1.36-5.26t3.68-3.74t5.16-1.4q2.2,0,4.24,0.82t3.6,2.34l-1.88,2.16q-1.2-1.28-2.74-1.94t-3.18-0.66q-2.04,0-3.7,1.02t-2.64,2.76t-0.98,3.9t0.98,3.92t2.66,2.78t3.72,1.02q1.64,0,3.1-0.64t2.74-1.88l1.84,2q-1.6,1.52-3.6,2.36t-4.16,0.84z M69.96,48l0-28l2.96-0.68l0,17.68l10.48-9.04l3.6,0l-11,9.52l11.52,10.52l-4.04,0l-10.56-9.6l0,9.6l-2.96,0z M89.72,48l0-28l2.96-0.68l0,28.68l-2.96,0z M107.04,48.4q-2.84,0-5.18-1.38t-3.7-3.74t-1.36-5.28t1.36-5.28t3.7-3.74t5.18-1.38q2.88,0,5.2,1.38t3.68,3.74t1.36,5.28t-1.36,5.28t-3.68,3.74t-5.2,1.38z M107.04,45.76q2.04,0,3.7-1.04t2.64-2.8t0.98-3.92q0-2.2-0.98-3.94t-2.64-2.78t-3.7-1.04t-3.7,1.04t-2.64,2.78t-0.98,3.94q0,2.16,0.98,3.92t2.64,2.8t3.7,1.04z M131.16,56.56q-2.08,0-4.12-0.54t-3.72-1.54l1.28-2.32q1.8,0.96,3.34,1.4t3.1,0.44q2.84,0,4.32-1.36t1.48-4l0-2.8q-2.76,2.32-6.36,2.32q-2.76,0-5.04-1.36t-3.62-3.7t-1.34-5.22t1.34-5.22t3.62-3.7t5.12-1.36q1.72,0,3.34,0.6t2.98,1.76l0-2l2.92,0l0,20.64q0,3.84-2.24,5.9t-6.4,2.06z M130.72,45.56q1.92,0,3.52-0.72t2.6-2.04l0-9.84q-1-1.28-2.62-2t-3.5-0.72q-2.08,0-3.74,1t-2.62,2.74t-0.96,3.9t0.98,3.9t2.64,2.76t3.7,1.02z  M154,48l0-28l4.32,0l9.56,19.88l9.52-19.88l4.32,0l0,28l-2.92,0l0-24.48l-10.96,22.48l-10.96-22.44l0,24.44l-2.88,0z M193.64,48.36q-2.2,0-3.86-0.76t-2.6-2.12t-0.94-3.16q0-2.84,2.16-4.48t5.84-1.64q3.24,0,5.88,1.36l0-2.64q0-2.4-1.36-3.62t-3.96-1.22q-1.48,0-2.98,0.42t-3.3,1.34l-1.12-2.28q2.16-1.04,4-1.52t3.68-0.48q3.8,0,5.86,1.8t2.06,5.16l0,13.48l-2.88,0l0-1.96q-1.36,1.16-2.98,1.74t-3.5,0.58z M189.08,42.24q0,1.68,1.42,2.74t3.66,1.06q1.8,0,3.28-0.56t2.68-1.76l0-3.76q-1.24-0.84-2.64-1.22t-3.16-0.38q-2.4,0-3.82,1.06t-1.42,2.82z M207.96,48l0-20.04l2.96,0l0,2.36q2.36-2.76,6.32-2.76q2.28,0,4.02,0.98t2.72,2.72t0.98,4.06l0,12.68l-2.92,0l0-12.08q0-2.68-1.5-4.22t-4.1-1.54q-1.8,0-3.2,0.8t-2.32,2.28l0,14.76l-2.96,0z M236.24,48.36q-2.2,0-3.86-0.76t-2.6-2.12t-0.94-3.16q0-2.84,2.16-4.48t5.84-1.64q3.24,0,5.88,1.36l0-2.64q0-2.4-1.36-3.62t-3.96-1.22q-1.48,0-2.98,0.42t-3.3,1.34l-1.12-2.28q2.16-1.04,4-1.52t3.68-0.48q3.8,0,5.86,1.8t2.06,5.16l0,13.48l-2.88,0l0-1.96q-1.36,1.16-2.98,1.74t-3.5,0.58z M231.68,42.24q0,1.68,1.42,2.74t3.66,1.06q1.8,0,3.28-0.56t2.68-1.76l0-3.76q-1.24-0.84-2.64-1.22t-3.16-0.38q-2.4,0-3.82,1.06t-1.42,2.82z M260.32,56.56q-2.08,0-4.12-0.54t-3.72-1.54l1.28-2.32q1.8,0.96,3.34,1.4t3.1,0.44q2.84,0,4.32-1.36t1.48-4l0-2.8q-2.76,2.32-6.36,2.32q-2.76,0-5.04-1.36t-3.62-3.7t-1.34-5.22t1.34-5.22t3.62-3.7t5.12-1.36q1.72,0,3.34,0.6t2.98,1.76l0-2l2.92,0l0,20.64q0,3.84-2.24,5.9t-6.4,2.06z M259.88,45.56q1.92,0,3.52-0.72t2.6-2.04l0-9.84q-1-1.28-2.62-2t-3.5-0.72q-2.08,0-3.74,1t-2.62,2.74t-0.96,3.9t0.98,3.9t2.64,2.76t3.7,1.02z M283.4,48.36q-2.88,0-5.22-1.38t-3.72-3.74t-1.38-5.28q0-2.88,1.32-5.22t3.56-3.72t5-1.38q2.68,0,4.82,1.38t3.4,3.72t1.26,5.22l0,0.92l-16.44,0q0.24,1.96,1.26,3.52t2.66,2.46t3.6,0.9q1.56,0,3.04-0.48t2.48-1.36l1.84,1.96q-1.68,1.24-3.5,1.86t-3.98,0.62z M276.08,36.52l13.4,0q-0.24-1.8-1.18-3.22t-2.34-2.24t-3.08-0.82q-1.72,0-3.16,0.8t-2.4,2.22t-1.24,3.26z M296.56,48l0-20.04l2.96,0l0,2.84q0.92-1.56,2.34-2.42t3.26-0.86q1.04,0,1.88,0.28l0,2.72q-0.52-0.2-1.04-0.28t-1.04-0.08q-1.84,0-3.22,1.06t-2.18,3.06l0,13.72l-2.96,0z"/></g></svg>